<svg width="512" height="512" viewBox="0 0 512 512" fill="none" xmlns="http://www.w3.org/2000/svg">
  <!-- Ícone do app: fundo verde com mascote Litro estilizado. -->
  <rect width="512" height="512" rx="112" fill="#1B5E20"/>
  <!-- Margem segura para maskable (conteúdo dentro de ~80%). -->
  <g transform="translate(126 96) scale(2.17)">
    <!-- Crista -->
    <path d="M42 30c-2-9 4-15 9-13 2-7 10-7 12 0 6-3 12 3 9 11-8-4-21-4-30 2z" fill="#FFD600"/>
    <!-- Corpo -->
    <path d="M60 34c18 0 30 13 30 31 0 20-14 33-30 33S30 85 30 65c0-18 12-31 30-31z" fill="#43A047"/>
    <!-- Barriga -->
    <ellipse cx="60" cy="76" rx="16" ry="20" fill="#2E7D32"/>
    <!-- Bico -->
    <path d="M86 58l14 5-14 6z" fill="#FF8F00"/>
    <!-- Olho -->
    <circle cx="74" cy="54" r="6" fill="#FFFFFF"/>
    <circle cx="76" cy="55" r="3" fill="#0A1F0C"/>
    <!-- Pernas -->
    <path d="M50 96v10M70 96v10" stroke="#FF8F00" stroke-width="4" stroke-linecap="round"/>
    <!-- Gota -->
    <path d="M60 12c3 5 6 8 6 12a6 6 0 11-12 0c0-4 3-7 6-12z" fill="#FFD600"/>
  </g>
</svg>
