<svg width="512" height="512" viewBox="0 0 512 512" fill="none" xmlns="http://www.w3.org/2000/svg">
  <defs>
    <linearGradient id="bg" x1="0" y1="0" x2="1" y2="1">
      <stop offset="0%" stop-color="#16A34A"/>
      <stop offset="100%" stop-color="#064E2B"/>
    </linearGradient>
    <linearGradient id="body" x1="0" y1="0" x2="0" y2="1">
      <stop offset="0%" stop-color="#34D058"/>
      <stop offset="100%" stop-color="#0B7A3B"/>
    </linearGradient>
    <linearGradient id="crest" x1="0" y1="0" x2="1" y2="1">
      <stop offset="0%" stop-color="#FFE14D"/>
      <stop offset="100%" stop-color="#FF8F00"/>
    </linearGradient>
  </defs>
  <rect width="512" height="512" rx="112" fill="url(#bg)"/>
  <g transform="translate(96 86) scale(2.0)">
    <g fill="url(#crest)">
      <circle cx="62" cy="22" r="11"/>
      <circle cx="80" cy="15" r="13"/>
      <circle cx="97" cy="23" r="11"/>
    </g>
    <path d="M80 30c30 0 50 23 50 56 0 34-22 58-50 58S30 120 30 86c0-33 20-56 50-56z" fill="url(#body)"/>
    <ellipse cx="78" cy="104" rx="30" ry="34" fill="#EAFBF0"/>
    <path d="M78 86c5 8 9 12 9 18a9 9 0 11-18 0c0-6 4-10 9-18z" fill="url(#crest)"/>
    <path d="M44 84l-16 6 16 7z" fill="#FF8F00"/>
    <circle cx="59" cy="90" r="8" fill="#fff"/>
    <circle cx="81" cy="90" r="8" fill="#fff"/>
    <circle cx="61" cy="91" r="4" fill="#0B1F12"/>
    <circle cx="83" cy="91" r="4" fill="#0B1F12"/>
    <path d="M64 112q10 12 20 0" stroke="#0B1F12" stroke-width="3" stroke-linecap="round" fill="none"/>
  </g>
</svg>
